HIERARCHY
ROOT hip
{
	OFFSET 0.000000 0.000000 0.000000
	CHANNELS 6 Xposition Yposition Zposition Xrotation Zrotation Yrotation 
	JOINT abdomen
	{
		OFFSET 0.000000 3.422050 0.000000
		CHANNELS 3 Xrotation Zrotation Yrotation 
		JOINT chest
		{
			OFFSET 0.000000 8.486693 -0.684411
			CHANNELS 3 Xrotation Zrotation Yrotation 
			JOINT neck
			{
				OFFSET 0.000000 10.266162 -0.273764
				CHANNELS 3 Xrotation Zrotation Yrotation 
				JOINT head
				{
					OFFSET 0.000000 3.148285 0.000000
					CHANNELS 3 Xrotation Zrotation Yrotation 
					End Site
					{
						OFFSET 0.000000 3.148289 0.000000
					}
				}
			}
			JOINT lCollar
			{
				OFFSET 3.422053 6.707223 -0.821293
				CHANNELS 3 Yrotation Zrotation Xrotation 
				JOINT lShldr
				{
					OFFSET 3.285171 0.000000 0.000000
					CHANNELS 3 Zrotation Yrotation Xrotation 
					JOINT lForeArm
					{
						OFFSET 10.129278 0.000000 0.000000
						CHANNELS 3 Yrotation Zrotation Xrotation 
						JOINT lHand
						{
							OFFSET 8.486692 0.000000 0.000000
							CHANNELS 3 Zrotation Yrotation Xrotation 
							End Site
							{
								OFFSET 4.106464 0.000000 0.000000
							}
						}
					}
				}
			}
			JOINT rCollar
			{
				OFFSET -3.558935 6.707223 -0.821293
				CHANNELS 3 Yrotation Zrotation Xrotation 
				JOINT rShldr
				{
					OFFSET -3.148289 0.000000 0.000000
					CHANNELS 3 Zrotation Yrotation Xrotation 
					JOINT rForeArm
					{
						OFFSET -10.266159 0.000000 0.000000
						CHANNELS 3 Yrotation Zrotation Xrotation 
						JOINT rHand
						{
							OFFSET -8.349810 0.000000 0.000000
							CHANNELS 3 Zrotation Yrotation Xrotation 
							End Site
							{
								OFFSET -4.106464 0.000000 0.000000
							}
						}
					}
				}
			}
		}
	}
	JOINT lThigh
	{
		OFFSET 5.338403 -1.642589 1.368821
		CHANNELS 3 Xrotation Zrotation Yrotation 
		JOINT lShin
		{
			OFFSET -2.053232 -20.121670 0.000000
			CHANNELS 3 Xrotation Zrotation Yrotation 
			JOINT lFoot
			{
				OFFSET 0.000000 -19.300380 -1.231939
				CHANNELS 3 Xrotation Yrotation Zrotation 
				End Site
				{
					OFFSET 0.000000 -2.463878 4.653993
				}
			}
		}
	}
	JOINT rThigh
	{
		OFFSET -5.338403 -1.642589 1.368821
		CHANNELS 3 Xrotation Zrotation Yrotation 
		JOINT rShin
		{
			OFFSET 2.053232 -20.121670 0.000000
			CHANNELS 3 Xrotation Zrotation Yrotation 
			JOINT rFoot
			{
				OFFSET 0.000000 -19.300380 -1.231939
				CHANNELS 3 Xrotation Yrotation Zrotation 
				End Site
				{
					OFFSET 0.000000 -2.463878 4.653993
				}
			}
		}
	}
}
MOTION
Frames: 11
Frame Time: 0.033264
19.995886 5.305927 28.340256 76.148834 0.000001 -0.000001 19.066265 -0.481589 -0.191782 -4.121083 -1.692718 -1.167302 -3.230585 -0.002174 -44.001656 -16.875486 -2.365396 -30.778179 -6.634906 -4.724986 8.378114 -27.016382 -6.566990 -46.304466 -51.904343 35.281792 14.221858 34.493458 -16.897015 -34.993214 6.364474 49.965588 -18.891685 30.568956 8.229193 -38.795948 41.988342 -34.411552 6.546288 -15.222322 29.172298 -16.519114 17.479351 5.253815 48.527828 -2.157261 -4.792050 19.889326 47.168636 -1.674588 3.049581 13.899452 -7.276087 -53.718094 11.928473 6.720882 -18.989214 49.366734 0.612967 -9.492378 
19.995886 5.305927 28.340256 76.298874 0.000000 -0.000001 19.527122 -0.465475 -0.188138 -5.203279 -1.671821 -1.160915 -2.955349 -0.002224 -44.001663 -16.799517 -2.240621 -30.527920 -6.571024 -4.886537 7.921319 -27.016382 -6.566990 -46.304466 -51.884037 35.278111 14.209771 33.899788 -17.518881 -34.664314 5.251769 50.125534 -17.868267 30.655952 8.653488 -38.956833 42.174461 -34.578079 6.615689 -14.624385 29.379732 -16.037386 17.315950 5.201334 48.436554 -2.157261 -4.792050 19.889324 47.168636 -1.674588 3.049581 13.618667 -7.283285 -53.179840 11.928473 6.720882 -18.989214 49.361847 0.308037 -9.038480 
19.995886 5.305927 28.340256 76.448921 0.000000 -0.000001 19.987955 -0.449391 -0.184365 -6.285074 -1.650814 -1.154926 -2.680119 -0.002275 -44.001652 -16.723009 -2.116180 -30.277525 -6.508425 -5.048576 7.464625 -27.016382 -6.566990 -46.304466 -51.863754 35.274441 14.197690 33.300438 -18.137304 -34.327579 4.131382 50.272602 -16.837063 30.741831 9.077994 -39.117233 42.361179 -34.744411 6.685883 -14.023315 29.582735 -15.552269 17.152645 5.148596 48.345440 -2.157261 -4.792050 19.889324 47.168636 -1.674588 3.049581 13.337848 -7.287864 -52.641602 11.928473 6.720882 -18.989214 49.359394 0.003107 -8.584661 
19.995886 5.305927 28.340256 76.598976 0.000000 -0.000001 20.448742 -0.433340 -0.180463 -7.366278 -1.629709 -1.149338 -2.404898 -0.002325 -44.001656 -16.645966 -1.992080 -30.026995 -6.447117 -5.211090 7.008044 -27.016382 -6.566990 -46.304466 -51.843441 35.270748 14.185602 32.695309 -18.752123 -33.982937 3.003998 50.406689 -15.798765 30.826609 9.502695 -39.277180 42.548523 -34.910545 6.756878 -13.419181 29.781250 -15.063834 16.989441 5.095601 48.254475 -2.157261 -4.792051 19.889328 47.168636 -1.674588 3.049581 13.057037 -7.289826 -52.103420 11.928473 6.720882 -18.989214 49.359344 -0.301792 -8.130908 
19.995886 5.305927 28.340256 76.749023 0.000000 -0.000001 20.909468 -0.417323 -0.176433 -8.446693 -1.608517 -1.144152 -2.129691 -0.002375 -44.001659 -16.568394 -1.868326 -29.776325 -6.387105 -5.374060 6.551588 -27.016382 -6.566990 -46.304466 -51.823147 35.267059 14.173519 32.084297 -19.363157 -33.630310 1.870326 50.527611 -14.754074 30.910280 9.927573 -39.436672 42.736496 -35.076492 6.828681 -12.812057 29.975231 -14.572154 16.826340 5.042348 48.163689 -2.157261 -4.792050 19.889326 47.168636 -1.674588 3.049581 12.776278 -7.289174 -51.565342 11.928473 6.720882 -18.989214 49.361717 -0.606626 -7.677221 
19.995886 5.305927 28.340256 76.899071 0.000000 -0.000000 21.370119 -0.401341 -0.172274 -9.526136 -1.587251 -1.139372 -1.854499 -0.002425 -44.001659 -16.490288 -1.744919 -29.525528 -6.328393 -5.537472 6.095263 -27.016382 -6.566990 -46.304466 -51.802868 35.263374 14.161445 31.467327 -19.970253 -33.269642 0.731103 50.635288 -13.703731 30.992842 10.352604 -39.595715 42.925098 -35.242233 6.901290 -12.202019 30.164625 -14.077305 16.663342 4.988841 48.073051 -2.157261 -4.792050 19.889326 47.168636 -1.674588 3.049581 12.495612 -7.285906 -51.027424 11.928473 6.720882 -18.989214 49.366505 -0.911362 -7.223595 
19.995886 5.305927 28.340256 77.049118 0.000000 -0.000000 21.830681 -0.385397 -0.167989 -10.604420 -1.565921 -1.134997 -1.579326 -0.002475 -44.001671 -16.411655 -1.621864 -29.274588 -6.270986 -5.701306 5.639078 -27.016382 -6.566990 -46.304466 -51.782570 35.259678 14.149366 30.844284 -20.573233 -32.900841 -0.412913 50.729584 -12.648489 31.074305 10.777778 -39.754322 43.114338 -35.407768 6.974716 -11.589142 30.349382 -13.579365 16.500441 4.935076 47.982571 -2.157261 -4.792050 19.889328 47.168636 -1.674588 3.049581 12.215074 -7.280027 -50.489689 11.928473 6.720882 -18.989214 49.373703 -1.215968 -6.770018 
19.995886 5.305927 28.340256 77.199158 0.000000 -0.000000 22.291142 -0.369491 -0.163576 -11.681346 -1.544539 -1.131030 -1.304175 -0.002525 -44.001663 -16.332497 -1.499167 -29.023523 -6.214889 -5.865548 5.183045 -27.016382 -6.566990 -46.304466 -51.762287 35.255981 14.137293 30.215094 -21.171930 -32.523853 -1.560931 50.810459 -11.589147 31.154669 11.203074 -39.912510 43.304211 -35.573097 7.048958 -10.973503 30.529436 -13.078410 16.337654 4.881061 47.892273 -2.157261 -4.792050 19.889328 47.168636 -1.674588 3.049581 11.934707 -7.271542 -49.952187 11.928473 6.720882 -18.989214 49.383305 -1.520410 -6.316492 
19.995886 5.305927 28.340256 77.349190 0.000000 -0.000000 22.751484 -0.353625 -0.159036 -12.756733 -1.523117 -1.127470 -1.029050 -0.002575 -44.001667 -16.252815 -1.376831 -28.772333 -6.160110 -6.030181 4.727174 -27.016382 -6.566990 -46.304466 -51.742001 35.252281 14.125220 29.579660 -21.766180 -32.138618 -2.712159 50.877831 -10.526495 31.233927 11.628469 -40.070274 43.494740 -35.738220 7.124029 -10.355193 30.704771 -12.574534 16.174971 4.826791 47.802135 -2.157261 -4.792050 19.889328 47.168636 -1.674588 3.049581 11.654550 -7.260450 -49.414959 11.928473 6.720882 -18.989214 49.395317 -1.824656 -5.863008 
19.995886 5.305927 28.340256 77.499222 0.000000 -0.000000 23.211687 -0.337801 -0.154371 -13.830397 -1.501667 -1.124318 -0.753954 -0.002626 -44.001671 -16.172606 -1.254858 -28.521008 -6.106650 -6.195186 4.271472 -27.016382 -6.566990 -46.304466 -51.721718 35.248577 14.113153 28.937897 -22.355804 -31.745050 -3.865775 50.931637 -9.461348 31.312088 12.053950 -40.227646 43.685913 -35.903122 7.199924 -9.734298 30.875317 -12.067820 16.012386 4.772268 47.712151 -2.157261 -4.792051 19.889328 47.168636 -1.674588 3.049581 11.374647 -7.246762 -48.878052 11.928473 6.720882 -18.989214 49.409733 -2.128673 -5.409563 
19.995886 5.305927 28.340256 77.649223 0.000000 -0.000000 23.671747 -0.322020 -0.149580 -14.902148 -1.480199 -1.121573 -0.478889 -0.002676 -44.001667 -16.091879 -1.133255 -28.269560 -6.054515 -6.360547 3.815951 -27.016382 -6.566990 -46.304466 -51.701447 35.244884 14.101089 28.289722 -22.940634 -31.343103 -5.020956 50.971870 -8.394537 31.389145 12.479495 -40.384605 43.877731 -36.067802 7.276649 -9.110901 31.041031 -11.558352 15.849916 4.717494 47.622349 -2.157261 -4.792050 19.889326 47.168636 -1.674588 3.049581 11.095037 -7.230484 -48.341515 11.928473 6.720882 -18.989214 49.426552 -2.432428 -4.956153 
